<svg xmlns="http://www.w3.org/2000/svg" width="200" height="200" viewBox="0 0 200 200"><rect width="100%" height="100%" fill="#5c5e5e"/><path fill="#fff" d="M47.285 93.815h1.66v10.12h-.97q-.22 0-.37-.07-.15-.08-.29-.25l-5.29-6.75q.04.46.04.85v6.22h-1.65v-10.12h.98q.12 0 .21.01t.15.04q.07.03.13.09.07.06.14.16l5.31 6.78-.04-.49q-.01-.24-.01-.44zm6.82 2.83q.8 0 1.45.25.65.26 1.12.74t.72 1.16q.25.69.25 1.54t-.25 1.54q-.25.68-.72 1.16-.47.49-1.12.75-.65.25-1.45.25-.81 0-1.47-.25-.65-.26-1.12-.75-.46-.48-.72-1.16-.26-.69-.26-1.54t.26-1.54q.26-.68.72-1.16.47-.48 1.12-.74.66-.25 1.47-.25m0 6.06q.89 0 1.32-.6t.43-1.76-.43-1.77-1.32-.61q-.91 0-1.35.61t-.44 1.77q0 1.15.44 1.76.44.6 1.35.6m10.43-8.89v10.12h-1.89v-10.12zm3.71 10.12h-1.72v-7.18h1.05q.34 0 .44.31l.12.54q.18-.21.39-.39t.44-.3q.24-.13.51-.2t.59-.07q.68 0 1.11.36.44.37.66.98.17-.36.42-.61.25-.26.55-.42t.64-.24q.34-.07.68-.07.6 0 1.06.18t.78.53q.31.35.48.85.16.51.16 1.16v4.57h-1.73v-4.57q0-.69-.3-1.03-.3-.35-.88-.35-.27 0-.49.09-.23.09-.4.26-.17.18-.27.43-.1.26-.1.6v4.57h-1.74v-4.57q0-.72-.29-1.05t-.85-.33q-.37 0-.7.19-.33.18-.61.5zm13.79-1.85v-1.22q-.74.04-1.26.13-.51.1-.81.25-.31.14-.45.34-.13.19-.13.42 0 .46.27.66.27.19.7.19.54 0 .92-.19.39-.19.76-.58m-3.65-3.78-.31-.55q1.24-1.14 2.98-1.14.63 0 1.13.21t.84.58q.34.36.52.87t.18 1.12v4.54h-.78q-.25 0-.38-.07-.13-.08-.21-.3l-.15-.52q-.28.25-.54.43-.26.19-.54.31-.28.13-.59.2-.32.06-.71.06-.45 0-.84-.12-.38-.12-.66-.37-.28-.24-.44-.61-.15-.36-.15-.84 0-.28.09-.55t.3-.51q.2-.25.53-.46.33-.22.81-.38t1.12-.26 1.45-.13v-.42q0-.72-.3-1.06-.31-.35-.89-.35-.42 0-.7.1t-.49.22-.38.22-.38.1q-.18 0-.31-.1-.12-.09-.2-.22m9.59 1.86q.32 0 .56-.08.24-.09.4-.24.15-.16.23-.38.08-.21.08-.47 0-.53-.31-.85-.32-.31-.96-.31t-.95.31q-.32.32-.32.85 0 .25.08.47.08.21.24.37.15.16.39.25.25.08.56.08m1.95 4.09q0-.21-.12-.34-.13-.13-.35-.21-.21-.07-.5-.11-.29-.03-.62-.05-.32-.02-.67-.03t-.68-.06q-.28.16-.46.38t-.18.51q0 .18.09.35.1.16.31.28.2.12.53.19.33.06.81.06t.83-.07.58-.2q.22-.13.33-.31.1-.18.1-.39m-.34-7.26h2.07v.65q0 .3-.38.37l-.64.12q.15.38.15.82 0 .53-.22.96-.21.43-.59.73t-.89.47q-.51.16-1.11.16-.21 0-.41-.02-.19-.02-.38-.06-.34.21-.34.46 0 .22.2.32t.53.14.75.05.86.05q.44.03.86.12t.75.28.53.51q.2.33.2.84 0 .47-.24.92-.23.45-.67.8-.45.35-1.1.56-.64.22-1.47.22-.81 0-1.41-.16-.61-.16-1-.42-.4-.26-.6-.61-.2-.34-.2-.71 0-.5.31-.84.3-.34.84-.55-.29-.14-.46-.39-.17-.24-.17-.64 0-.16.06-.33.06-.18.18-.34.11-.17.29-.32.17-.15.41-.27-.55-.3-.86-.79t-.31-1.14q0-.54.22-.97.21-.43.59-.73.38-.31.9-.47t1.14-.16q.46 0 .87.1.4.09.74.27m4.52 2.52h3.26q0-.33-.09-.63t-.28-.52q-.19-.23-.48-.36-.29-.12-.68-.12-.75 0-1.18.42-.43.43-.55 1.21m4.41 1.05h-4.44q.04.55.19.95.16.4.41.67.25.26.6.39.34.13.76.13t.73-.1q.3-.1.53-.22l.4-.21q.17-.1.33-.1.22 0 .32.16l.5.63q-.29.34-.64.56-.36.23-.75.37-.39.13-.79.19-.4.05-.78.05-.75 0-1.39-.24-.65-.25-1.12-.74-.48-.48-.75-1.2t-.27-1.67q0-.73.23-1.38.24-.65.69-1.12.44-.48 1.08-.76t1.45-.28q.68 0 1.25.21.57.22.99.64.41.41.64 1.02.24.6.24 1.38 0 .39-.09.53-.08.14-.32.14m7.51-.45h3.22l-1.24-3.37q-.09-.22-.18-.53-.1-.31-.2-.67-.09.36-.19.67t-.19.55zm2.57-6.3 3.97 10.12h-1.45q-.25 0-.4-.12-.16-.12-.23-.31l-.76-2.06h-4.19l-.76 2.06q-.06.16-.22.3-.16.13-.4.13h-1.47l3.99-10.12zm9.86 2.94h1.36l-2.85 7.18h-1.56l-2.85-7.18h1.43q.19 0 .32.09t.17.23l1.39 3.84q.11.33.19.65.09.33.15.65.07-.32.16-.65.08-.32.2-.65l1.41-3.84q.05-.14.18-.23.12-.09.3-.09m6.07 5.33v-1.22q-.74.04-1.26.13-.51.1-.81.25-.31.14-.45.34-.13.19-.13.42 0 .46.27.66.27.19.7.19.54 0 .93-.19.38-.19.75-.58m-3.65-3.78-.31-.55q1.24-1.14 2.98-1.14.63 0 1.13.21t.84.58q.34.36.52.87t.18 1.12v4.54h-.78q-.25 0-.38-.07-.13-.08-.21-.3l-.15-.52q-.28.25-.54.43-.26.19-.54.31-.28.13-.59.2-.32.06-.71.06-.45 0-.84-.12-.38-.12-.66-.37-.28-.24-.44-.61-.15-.36-.15-.84 0-.28.09-.55t.3-.51q.2-.25.53-.46.33-.22.81-.38t1.12-.26 1.45-.13v-.42q0-.72-.3-1.06-.31-.35-.89-.35-.42 0-.7.1t-.49.22-.38.22-.38.1q-.18 0-.31-.1-.12-.09-.2-.22m7.02-1.55h1.74v7.18h-1.74zm1.98-2.1q0 .23-.1.42-.09.2-.24.35-.15.14-.35.23t-.43.09-.43-.09-.34-.23q-.15-.15-.24-.35-.09-.19-.09-.42t.09-.43.24-.35q.14-.15.34-.23.2-.09.43-.09t.43.09q.2.08.35.23t.24.35q.1.2.1.43m1.54-1.12h1.73v10.4h-1.73zm7.25 8.55v-1.22q-.74.04-1.26.13-.51.1-.81.25-.31.14-.45.34-.13.19-.13.42 0 .46.27.66.27.19.7.19.54 0 .93-.19.38-.19.75-.58m-3.65-3.78-.31-.55q1.24-1.14 2.98-1.14.63 0 1.13.21t.84.58q.34.36.52.87t.18 1.12v4.54h-.78q-.25 0-.38-.07-.13-.08-.21-.3l-.15-.52q-.28.25-.54.43-.26.19-.54.31-.28.13-.59.2-.32.06-.71.06-.45 0-.84-.12-.38-.12-.66-.37-.28-.24-.44-.61-.15-.36-.15-.84 0-.28.09-.55t.3-.51q.2-.25.53-.46.33-.22.81-.38t1.12-.26 1.45-.13v-.42q0-.72-.3-1.06-.31-.35-.89-.35-.42 0-.7.1t-.49.22-.38.22-.38.1q-.18 0-.31-.1-.12-.09-.2-.22m8.69.55v3.22q.3.35.65.5.34.15.73.15.4 0 .71-.14.32-.15.55-.45.22-.31.34-.78t.12-1.13q0-1.18-.39-1.71-.4-.53-1.13-.53-.5 0-.87.23-.37.22-.71.64m0-5.32v4.1q.44-.45.97-.72t1.2-.27q.63 0 1.13.24.5.25.85.7.36.46.54 1.11.19.66.19 1.47 0 .87-.21 1.59-.22.71-.62 1.22-.41.5-.97.78-.57.28-1.26.28-.34 0-.61-.06-.27-.07-.51-.19-.23-.12-.42-.29t-.37-.38l-.07.48q-.05.19-.15.26-.1.08-.27.08h-1.14v-10.4zm6.24 0h1.73v10.4h-1.73zm4.82 5.98h3.27q0-.33-.1-.63-.09-.3-.28-.52-.19-.23-.48-.36-.29-.12-.68-.12-.75 0-1.18.42-.43.43-.55 1.21m4.41 1.05h-4.44q.04.55.2.95.15.4.4.67.25.26.6.39t.77.13.72-.1q.31-.1.53-.22l.4-.21q.17-.1.33-.1.22 0 .33.16l.49.63q-.28.34-.64.56-.36.23-.75.37-.38.13-.79.19-.4.05-.78.05-.75 0-1.39-.24-.64-.25-1.12-.74-.48-.48-.75-1.2t-.27-1.67q0-.73.24-1.38.23-.65.68-1.12.44-.48 1.08-.76t1.45-.28q.68 0 1.25.21.58.22.99.64.41.41.65 1.02.23.6.23 1.38 0 .39-.08.53-.09.14-.33.14"/></svg>